<svg width="32" height="32" viewBox="0 0 32 32" fill="none" xmlns="http://www.w3.org/2000/svg">
<path d="M27.8665 2.66669H4.13317C3.74419 2.66669 3.37113 2.82121 3.09608 3.09626C2.82103 3.37132 2.6665 3.74437 2.6665 4.13335V27.8667C2.6665 28.0593 2.70444 28.25 2.77815 28.428C2.85185 28.6059 2.95989 28.7676 3.09608 28.9038C3.23227 29.04 3.39396 29.148 3.5719 29.2217C3.74985 29.2954 3.94057 29.3334 4.13317 29.3334H16.9065V19H13.4398V15H16.9065V12C16.8347 11.2957 16.9178 10.5842 17.1501 9.9154C17.3824 9.24662 17.7582 8.63675 18.2511 8.12857C18.7441 7.62039 19.3422 7.22621 20.0036 6.97367C20.665 6.72113 21.3737 6.61636 22.0798 6.66669C23.1176 6.6603 24.1549 6.71372 25.1865 6.82669V10.4267H23.0665C21.3865 10.4267 21.0665 11.2267 21.0665 12.3867V14.96H25.0665L24.5465 18.96H21.0665V29.3334H27.8665C28.0591 29.3334 28.2498 29.2954 28.4278 29.2217C28.6057 29.148 28.7674 29.04 28.9036 28.9038C29.0398 28.7676 29.1478 28.6059 29.2215 28.428C29.2952 28.25 29.3332 28.0593 29.3332 27.8667V4.13335C29.3332 3.94075 29.2952 3.75003 29.2215 3.57208C29.1478 3.39414 29.0398 3.23246 28.9036 3.09626C28.7674 2.96007 28.6057 2.85204 28.4278 2.77833C28.2498 2.70462 28.0591 2.66669 27.8665 2.66669Z" fill="#494949"/>
</svg>
