<svg width="32" height="32" viewBox="0 0 32 32" fill="none" xmlns="http://www.w3.org/2000/svg">
<path d="M15.9998 12.6934C15.3458 12.6934 14.7065 12.8873 14.1628 13.2506C13.619 13.614 13.1951 14.1304 12.9449 14.7346C12.6946 15.3388 12.6291 16.0037 12.7567 16.6451C12.8843 17.2865 13.1992 17.8757 13.6617 18.3382C14.1241 18.8006 14.7133 19.1156 15.3547 19.2431C15.9962 19.3707 16.661 19.3053 17.2652 19.055C17.8695 18.8047 18.3859 18.3809 18.7492 17.8371C19.1126 17.2933 19.3065 16.654 19.3065 16C19.3065 15.5658 19.221 15.1358 19.0548 14.7346C18.8886 14.3334 18.6451 13.9689 18.338 13.6619C18.031 13.3548 17.6664 13.1112 17.2652 12.9451C16.8641 12.7789 16.4341 12.6934 15.9998 12.6934V12.6934ZM29.2398 9.42669C29.2328 8.39703 29.0432 7.37678 28.6798 6.41335C28.4122 5.70837 27.9981 5.06815 27.4649 4.53493C26.9317 4.00172 26.2915 3.58764 25.5865 3.32002C24.6231 2.95664 23.6028 2.76703 22.5732 2.76002C20.8532 2.66669 20.3465 2.66669 15.9998 2.66669C11.6532 2.66669 11.1465 2.66669 9.4265 2.76002C8.39685 2.76703 7.3766 2.95664 6.41317 3.32002C5.70818 3.58764 5.06796 4.00172 4.53475 4.53493C4.00154 5.06815 3.58746 5.70837 3.31984 6.41335C2.95646 7.37678 2.76685 8.39703 2.75984 9.42669C2.6665 11.1467 2.6665 11.6534 2.6665 16C2.6665 20.3467 2.6665 20.8534 2.75984 22.5734C2.77419 23.6066 2.96354 24.63 3.31984 25.6C3.58627 26.3018 4.00001 26.9383 4.53317 27.4667C5.0641 28.0031 5.70569 28.4172 6.41317 28.68C7.3766 29.0434 8.39685 29.233 9.4265 29.24C11.1465 29.3334 11.6532 29.3334 15.9998 29.3334C20.3465 29.3334 20.8532 29.3334 22.5732 29.24C23.6028 29.233 24.6231 29.0434 25.5865 28.68C26.294 28.4172 26.9356 28.0031 27.4665 27.4667C27.9997 26.9383 28.4134 26.3018 28.6798 25.6C29.0429 24.6319 29.2324 23.6073 29.2398 22.5734C29.3332 20.8534 29.3332 20.3467 29.3332 16C29.3332 11.6534 29.3332 11.1467 29.2398 9.42669V9.42669ZM25.8532 20.0934C25.8104 20.9162 25.6348 21.7266 25.3332 22.4934C25.0743 23.1329 24.6895 23.7139 24.2016 24.2018C23.7138 24.6897 23.1328 25.0745 22.4932 25.3334C21.7192 25.6181 20.9042 25.7757 20.0798 25.8C19.0265 25.8 18.7465 25.8 15.9998 25.8C13.2532 25.8 12.9732 25.8 11.9198 25.8C11.0955 25.7757 10.2805 25.6181 9.5065 25.3334C8.84531 25.0876 8.24821 24.6957 7.75984 24.1867C7.27673 23.7084 6.90363 23.1305 6.6665 22.4934C6.38058 21.7202 6.22731 20.9043 6.21317 20.08C6.21317 19.0267 6.21317 18.7467 6.21317 16C6.21317 13.2534 6.21317 12.9734 6.21317 11.92C6.22731 11.0958 6.38058 10.2799 6.6665 9.50669C6.91221 8.84549 7.3042 8.24839 7.81317 7.76002C8.29361 7.27952 8.87086 6.90681 9.5065 6.66669C10.2805 6.38189 11.0955 6.2243 11.9198 6.20002V6.20002C12.9732 6.20002 13.2532 6.20002 15.9998 6.20002C18.7465 6.20002 19.0265 6.20002 20.0798 6.20002C20.9042 6.2243 21.7192 6.38189 22.4932 6.66669C23.1544 6.9124 23.7515 7.30439 24.2398 7.81335C24.7229 8.29169 25.096 8.86953 25.3332 9.50669C25.618 10.2807 25.7756 11.0957 25.7998 11.92C25.7998 12.9734 25.7998 13.2534 25.7998 16C25.7998 18.7467 25.8932 19.0267 25.8532 20.08V20.0934ZM23.7198 10.1734C23.5611 9.74267 23.3108 9.35154 22.9862 9.02697C22.6616 8.7024 22.2705 8.4521 21.8398 8.29335C21.2485 8.08837 20.6256 7.98907 19.9998 8.00002C18.9598 8.00002 18.6665 8.00002 15.9998 8.00002C13.3332 8.00002 13.0398 8.00002 11.9998 8.00002C11.3709 8.00617 10.7479 8.12353 10.1598 8.34669C9.73574 8.49823 9.34876 8.7383 9.02462 9.05095C8.70047 9.36361 8.44658 9.74167 8.27984 10.16C8.08621 10.7538 7.99161 11.3755 7.99984 12C7.99984 13.04 7.99984 13.3334 7.99984 16C7.99984 18.6667 7.99984 18.96 7.99984 20C8.01306 20.6283 8.1302 21.25 8.3465 21.84C8.50525 22.2707 8.75555 22.6618 9.08012 22.9864C9.40469 23.311 9.79582 23.5613 10.2265 23.72C10.7954 23.9292 11.394 24.0463 11.9998 24.0667V24.0667C13.0398 24.0667 13.3332 24.0667 15.9998 24.0667C18.6665 24.0667 18.9598 24.0667 19.9998 24.0667C20.6288 24.0605 21.2517 23.9432 21.8398 23.72C22.2705 23.5613 22.6616 23.311 22.9862 22.9864C23.3108 22.6618 23.5611 22.2707 23.7198 21.84C23.943 21.2519 24.0604 20.629 24.0665 20C24.0665 18.96 24.0665 18.6667 24.0665 16C24.0665 13.3334 24.0665 13.04 24.0665 12C24.0669 11.3704 23.9493 10.7463 23.7198 10.16V10.1734ZM15.9998 21.0934C15.3316 21.0934 14.6699 20.9615 14.0527 20.7054C13.4355 20.4493 12.8749 20.0739 12.403 19.6007C11.9311 19.1276 11.5572 18.566 11.3027 17.9481C11.0482 17.3303 10.9181 16.6683 10.9198 16V16C10.9198 14.9921 11.2189 14.0068 11.7792 13.1689C12.3394 12.3311 13.1357 11.6782 14.0671 11.2931C14.9986 10.908 16.0234 10.8079 17.0117 11.0056C18.0001 11.2032 18.9076 11.6896 19.6194 12.4032C20.3312 13.1169 20.8152 14.0257 21.0103 15.0146C21.2053 16.0034 21.1025 17.028 20.715 17.9584C20.3274 18.8889 19.6725 19.6834 18.8332 20.2415C17.9938 20.7995 17.0078 21.096 15.9998 21.0934V21.0934ZM21.3332 11.9067C21.0384 11.8755 20.7657 11.7363 20.5674 11.516C20.3692 11.2956 20.2595 11.0097 20.2595 10.7134C20.2595 10.417 20.3692 10.1311 20.5674 9.91073C20.7657 9.69039 21.0384 9.55122 21.3332 9.52002V9.52002C21.6279 9.55122 21.9007 9.69039 22.0989 9.91073C22.2972 10.1311 22.4069 10.417 22.4069 10.7134C22.4069 11.0097 22.2972 11.2956 22.0989 11.516C21.9007 11.7363 21.6279 11.8755 21.3332 11.9067Z" fill="#494949"/>
</svg>
