<svg width="32" height="32" viewBox="0 0 32 32" fill="none" xmlns="http://www.w3.org/2000/svg">
<path d="M27.9998 2.66669H3.99984C3.64622 2.66669 3.30708 2.80716 3.05703 3.05721C2.80698 3.30726 2.6665 3.6464 2.6665 4.00002V28C2.6665 28.3536 2.80698 28.6928 3.05703 28.9428C3.30708 29.1929 3.64622 29.3334 3.99984 29.3334H27.9998C28.3535 29.3334 28.6926 29.1929 28.9426 28.9428C29.1927 28.6928 29.3332 28.3536 29.3332 28V4.00002C29.3332 3.6464 29.1927 3.30726 28.9426 3.05721C28.6926 2.80716 28.3535 2.66669 27.9998 2.66669V2.66669ZM23.6252 14.3C23.4798 14.3142 23.3339 14.3218 23.1878 14.3227C22.3968 14.3237 21.6179 14.1276 20.9216 13.7521C20.2253 13.3766 19.6336 12.8336 19.1998 12.172V19.496C19.2001 20.5671 18.8827 21.6141 18.2879 22.5047C17.693 23.3954 16.8473 24.0896 15.8579 24.4996C14.8684 24.9096 13.7796 25.0169 12.7291 24.808C11.6787 24.5992 10.7138 24.0834 9.95642 23.3261C9.19909 22.5688 8.68336 21.6038 8.47448 20.5534C8.2656 19.5029 8.37294 18.4141 8.78293 17.4246C9.19291 16.4352 9.88713 15.5895 10.7778 14.9947C11.6684 14.3998 12.7155 14.0824 13.7865 14.0827C13.8998 14.0827 14.0092 14.0934 14.1212 14.1V16.7667C13.7481 16.7215 13.3698 16.7531 13.0094 16.8595C12.649 16.9659 12.3142 17.1448 12.0255 17.3854C11.7368 17.6259 11.5004 17.923 11.3307 18.2583C11.161 18.5935 11.0617 18.96 11.0389 19.3351C11.016 19.7101 11.0701 20.0859 11.1978 20.4393C11.3255 20.7927 11.5241 21.1163 11.7815 21.3901C12.0388 21.6639 12.3494 21.8822 12.6942 22.0316C13.039 22.181 13.4107 22.2582 13.7865 22.2587C14.5281 22.2721 15.2453 21.9939 15.7838 21.484C16.3224 20.9741 16.6394 20.2732 16.6665 19.532L16.6932 7.09069H19.2452C19.3617 8.19929 19.8642 9.23165 20.6649 10.0072C21.4656 10.7828 22.5134 11.2522 23.6252 11.3334V14.3Z" fill="#494949"/>
</svg>
